<?xml version="1.0"?><svg width="533.3333333333333" height="533.3333333333333" xmlns="http://www.w3.org/2000/svg" xmlns:xlink="http://www.w3.org/1999/xlink">
 <defs>
  <linearGradient id="linearGradient1085">
   <stop stop-color="#00009f" offset="0" id="stop1086"/>
   <stop stop-color="#0000ff" offset="1" id="stop1087"/>
  </linearGradient>
  <radialGradient xlink:href="#linearGradient1085" r="2.136737" id="radialGradient1088" fy="-0.033504" fx="1.799501" cy="-0.033504" cx="1.799501"/>
  <radialGradient xlink:href="#linearGradient1085" r="2.136737" id="radialGradient1089" fy="-0.02827" fx="-1.853807" cy="-0.02827" cx="-1.853807"/>
  <radialGradient xlink:href="#linearGradient1085" r="2.136737" id="radialGradient1090" gradientTransform="scale(0.751916,1.329935)" fy="-1.884181" fx="-0.340903" cy="-1.884181" cx="-0.340903"/>
  <radialGradient xlink:href="#linearGradient1085" r="2.136737" id="radialGradient1091" gradientTransform="scale(0.751916,1.329935)" fy="0.862865" fx="-0.33889" cy="0.862865" cx="-0.33889"/>
  <radialGradient xlink:href="#linearGradient1085" r="2.136737" id="radialGradient1092" fy="-0.022911" fx="0.860515" cy="-0.022911" cx="0.860515"/>
  <radialGradient xlink:href="#linearGradient1085" r="2.136737" id="radialGradient1093" fy="-0.031801" fx="-2.792794" cy="-0.031801" cx="-2.792794"/>
  <radialGradient xlink:href="#linearGradient1085" r="2.136737" id="radialGradient1094" gradientTransform="scale(0.751916,1.329935)" fy="-1.174612" fx="-0.340903" cy="-1.174612" cx="-0.340903"/>
  <radialGradient xlink:href="#linearGradient1085" r="2.136737" id="radialGradient1095" gradientTransform="scale(0.751916,1.329935)" fy="1.569105" fx="-0.336239" cy="1.569105" cx="-0.336239"/>
  <radialGradient xlink:href="#linearGradient1085" r="0.665347" id="radialGradient1096" gradientTransform="scale(0.867801,1.152339)" fy="0.268215" fx="0.264814" cy="0.268215" cx="0.264814"/>
 </defs>
 <g>
  <title>Layer 1</title>
  <g id="g842">
   <path fill="#ffffff" fill-opacity="0.5" fill-rule="evenodd" stroke-width="2.8679966pt" id="path1452" d="m260.90625,98.476471c-15.199432,0.55954 -32.248627,5.653313 -41.34375,16.5625c-13.229263,28.187729 18.907715,15.172913 22.6875,34.6875c3.779785,19.514587 -18.90625,20.59375 -18.90625,20.59375l0,0l-97.75,0l0,99.15625c-0.272202,3.129578 -2.534866,21.21759 -20.4375,17.75c-19.51458,-3.779785 -6.499763,-35.885529 -34.6875,-22.65625c-9.206951,7.675934 -14.274841,20.97934 -15.96875,34.09375c-0.026459,0.204803 -0.068939,0.420319 -0.09375,0.625c-0.966702,4.61203 -1.456558,9.889038 -1.25,15.5c0.55954,15.199432 5.653301,32.248627 16.5625,41.34375c28.187729,13.229248 15.172913,-18.907715 34.6875,-22.6875c19.51458,-3.779816 20.59375,18.90625 20.59375,18.90625l0.59375,97.71875c0,0 98.093765,-0.78125 98.09375,-0.78125c0,0 22.686035,-1.079193 18.90625,-20.59375c-3.779785,-19.514587 -35.885513,-6.499786 -22.65625,-34.6875c9.095123,-10.90921 26.113068,-16.00296 41.3125,-16.5625c5.610962,-0.206573 10.88797,0.283295 15.5,1.25c0.204681,0.024811 0.420166,0.067291 0.625,0.09375c13.11441,1.693909 26.449066,6.76178 34.125,15.96875c13.229279,28.187744 -18.907715,15.172913 -22.6875,34.6875c-3.779785,19.514587 18.90625,20.59375 18.90625,20.59375l97.1875,0.03125l0,-102.09375c1.386414,-6.352112 5.802734,-17.456512 19.9375,-14.71875c19.514587,3.779785 6.499756,35.916779 34.6875,22.6875c9.20694,-7.675934 14.274841,-21.01059 15.96875,-34.125c0.026459,-0.204834 0.068939,-0.389069 0.09375,-0.59375c0.966675,-4.612061 1.456573,-9.889038 1.25,-15.5c-0.55954,-15.199432 -5.65329,-32.248627 -16.5625,-41.34375c-28.187744,-13.229263 -15.172913,18.907715 -34.6875,22.6875c-19.514587,3.779816 -20.59375,-18.90625 -20.59375,-18.90625l-0.09375,-97.84375l-102.15625,0c-6.405579,-1.481934 -16.964233,-5.991882 -14.28125,-19.84375c3.779785,-19.514587 35.885529,-6.499756 22.65625,-34.6875c-7.675964,-9.20694 -20.97934,-14.274826 -34.09375,-15.96875c-0.204834,-0.026451 -0.420319,-0.068939 -0.625,-0.09375c-4.612061,-0.966698 -9.889038,-1.456566 -15.5,-1.25z"/>
   <path fill="#ffffff" fill-rule="evenodd" stroke="#000000" stroke-width="12.5" stroke-linejoin="round" id="path1175" d="m243.9375,83.625c-15.199432,0.55954 -32.248627,5.653305 -41.34375,16.5625c-13.229263,28.187744 18.907715,15.172913 22.6875,34.6875c3.779785,19.514587 -18.90625,20.59375 -18.90625,20.59375l0,0l-97.75,0l0,99.15625c-0.272202,3.129578 -2.534866,21.21759 -20.4375,17.75c-19.514587,-3.779785 -6.499763,-35.885513 -34.6875,-22.65625c-9.206951,7.675934 -14.274841,20.97934 -15.96875,34.09375c-0.026459,0.204834 -0.068939,0.420288 -0.09375,0.625c-0.966702,4.612061 -1.456558,9.889069 -1.25,15.5c0.55954,15.199432 5.653301,32.248627 16.5625,41.34375c28.187729,13.229248 15.172913,-18.907715 34.6875,-22.6875c19.51458,-3.779785 20.59375,18.90625 20.59375,18.90625l0.59375,97.71875c0,0 98.093765,-0.78125 98.09375,-0.78125c0,0 22.686035,-1.079193 18.90625,-20.59375c-3.779785,-19.514587 -35.885513,-6.499786 -22.65625,-34.6875c9.095123,-10.90921 26.113068,-16.00296 41.3125,-16.5625c5.610947,-0.206573 10.887955,0.283295 15.5,1.25c0.204681,0.024811 0.420166,0.067291 0.625,0.09375c13.11441,1.693909 26.449066,6.76178 34.125,15.96875c13.229279,28.187744 -18.907715,15.172913 -22.6875,34.6875c-3.779785,19.514587 18.90625,20.59375 18.90625,20.59375l97.1875,0.03125l0,-102.09375c1.386414,-6.352112 5.802734,-17.456512 19.9375,-14.71875c19.514587,3.779785 6.499756,35.916779 34.6875,22.6875c9.20694,-7.675934 14.274841,-21.01059 15.96875,-34.125c0.026459,-0.204834 0.068939,-0.389069 0.09375,-0.59375c0.966675,-4.612061 1.456573,-9.889038 1.25,-15.5c-0.55954,-15.199432 -5.65329,-32.248627 -16.5625,-41.34375c-28.187744,-13.229263 -15.172913,18.907715 -34.6875,22.6875c-19.514587,3.779816 -20.59375,-18.90625 -20.59375,-18.90625l-0.09375,-97.84375l-102.15625,0c-6.405579,-1.481934 -16.964233,-5.991882 -14.28125,-19.84375c3.779785,-19.514587 35.885529,-6.499756 22.65625,-34.6875c-7.675964,-9.20694 -20.97934,-14.274826 -34.09375,-15.96875c-0.204834,-0.026451 -0.420319,-0.068939 -0.625,-0.09375c-4.612045,-0.966698 -9.889053,-1.456558 -15.5,-1.25z"/>
  </g>
 </g>
</svg>